# Blender 4.5.4 LTS
# www.blender.org
mtllib head.mtl
o neck.001
v -1.500000 1.500000 0.700000
v -1.500000 1.500000 -0.700000
v 1.500000 1.500000 0.700000
v 1.500000 1.500000 -0.700000
v -1.500000 1.000000 0.700000
v -1.500000 1.000000 -0.700000
v 1.500000 1.000000 -0.700000
v 1.500000 1.000000 0.700000
vn -1.0000 -0.0000 -0.0000
vn -0.0000 -0.0000 -1.0000
vn 1.0000 -0.0000 -0.0000
vn -0.0000 -0.0000 1.0000
vn -0.0000 1.0000 -0.0000
vn -0.0000 -1.0000 -0.0000
vt 0.500000 0.000000
vt 0.625000 0.000000
vt 0.625000 0.250000
vt 0.500000 0.250000
vt 0.625000 0.500000
vt 0.500000 0.500000
vt 0.625000 0.750000
vt 0.500000 0.750000
vt 0.625000 1.000000
vt 0.500000 1.000000
vt 0.875000 0.500000
vt 0.875000 0.750000
s 0
f 5/1/1 1/2/1 2/3/1 6/4/1
f 6/4/2 2/3/2 4/5/2 7/6/2
f 7/6/3 4/5/3 3/7/3 8/8/3
f 8/8/4 3/7/4 1/9/4 5/10/4
f 4/5/5 2/11/5 1/12/5 3/7/5
f 8/8/6 5/1/6 6/4/6 7/6/6
o head_1.001
v 0.750000 2.000000 0.500000
v 0.750000 2.000000 -0.500000
v 2.250000 2.000000 0.500000
v 2.250000 2.000000 -0.500000
v 0.750000 1.500000 0.500000
v 0.750000 1.500000 -0.500000
v 2.250000 1.500000 -0.500000
v 2.250000 1.500000 0.500000
vn -1.0000 -0.0000 -0.0000
vn -0.0000 -0.0000 -1.0000
vn 1.0000 -0.0000 -0.0000
vn -0.0000 -0.0000 1.0000
vn -0.0000 1.0000 -0.0000
vn -0.0000 -1.0000 -0.0000
vt 0.500000 0.000000
vt 0.625000 0.000000
vt 0.625000 0.250000
vt 0.500000 0.250000
vt 0.625000 0.500000
vt 0.500000 0.500000
vt 0.625000 0.750000
vt 0.500000 0.750000
vt 0.625000 1.000000
vt 0.500000 1.000000
vt 0.875000 0.500000
vt 0.875000 0.750000
s 0
f 13/13/7 9/14/7 10/15/7 14/16/7
f 14/16/8 10/15/8 12/17/8 15/18/8
f 15/18/9 12/17/9 11/19/9 16/20/9
f 16/20/10 11/19/10 9/21/10 13/22/10
f 12/17/11 10/23/11 9/24/11 11/19/11
f 16/20/12 13/13/12 14/16/12 15/18/12
o head_2.001
v -2.250000 2.000000 0.500000
v -2.250000 2.000000 -0.500000
v -0.750000 2.000000 0.500000
v -0.750000 2.000000 -0.500000
v -2.250000 1.500000 0.500000
v -2.250000 1.500000 -0.500000
v -0.750000 1.500000 -0.500000
v -0.750000 1.500000 0.500000
vn -1.0000 -0.0000 -0.0000
vn -0.0000 -0.0000 -1.0000
vn 1.0000 -0.0000 -0.0000
vn -0.0000 -0.0000 1.0000
vn -0.0000 1.0000 -0.0000
vn -0.0000 -1.0000 -0.0000
vt 0.500000 0.000000
vt 0.625000 0.000000
vt 0.625000 0.250000
vt 0.500000 0.250000
vt 0.625000 0.500000
vt 0.500000 0.500000
vt 0.625000 0.750000
vt 0.500000 0.750000
vt 0.625000 1.000000
vt 0.500000 1.000000
vt 0.875000 0.500000
vt 0.875000 0.750000
s 0
f 21/25/13 17/26/13 18/27/13 22/28/13
f 22/28/14 18/27/14 20/29/14 23/30/14
f 23/30/15 20/29/15 19/31/15 24/32/15
f 24/32/16 19/31/16 17/33/16 21/34/16
f 20/29/17 18/35/17 17/36/17 19/31/17
f 24/32/18 21/25/18 22/28/18 23/30/18
o mouth_1.001
v 1.450000 1.800000 1.500000
v 1.450000 1.800000 0.500000
v 1.550000 1.800000 1.500000
v 1.550000 1.800000 0.500000
v 1.450000 1.700000 1.500000
v 1.450000 1.700000 0.500000
v 1.550000 1.700000 0.500000
v 1.550000 1.700000 1.500000
vn -1.0000 -0.0000 -0.0000
vn -0.0000 -0.0000 -1.0000
vn 1.0000 -0.0000 -0.0000
vn -0.0000 -0.0000 1.0000
vn -0.0000 1.0000 -0.0000
vn -0.0000 -1.0000 -0.0000
vt 0.500000 0.000000
vt 0.625000 0.000000
vt 0.625000 0.250000
vt 0.500000 0.250000
vt 0.625000 0.500000
vt 0.500000 0.500000
vt 0.625000 0.750000
vt 0.500000 0.750000
vt 0.625000 1.000000
vt 0.500000 1.000000
vt 0.875000 0.500000
vt 0.875000 0.750000
s 0
f 29/37/19 25/38/19 26/39/19 30/40/19
f 30/40/20 26/39/20 28/41/20 31/42/20
f 31/42/21 28/41/21 27/43/21 32/44/21
f 32/44/22 27/43/22 25/45/22 29/46/22
f 28/41/23 26/47/23 25/48/23 27/43/23
f 32/44/24 29/37/24 30/40/24 31/42/24
o mouth_2.001
v -1.550000 1.800000 1.500000
v -1.550000 1.800000 0.500000
v -1.450000 1.800000 1.500000
v -1.450000 1.800000 0.500000
v -1.550000 1.700000 1.500000
v -1.550000 1.700000 0.500000
v -1.450000 1.700000 0.500000
v -1.450000 1.700000 1.500000
vn -1.0000 -0.0000 -0.0000
vn -0.0000 -0.0000 -1.0000
vn 1.0000 -0.0000 -0.0000
vn -0.0000 -0.0000 1.0000
vn -0.0000 1.0000 -0.0000
vn -0.0000 -1.0000 -0.0000
vt 0.500000 0.000000
vt 0.625000 0.000000
vt 0.625000 0.250000
vt 0.500000 0.250000
vt 0.625000 0.500000
vt 0.500000 0.500000
vt 0.625000 0.750000
vt 0.500000 0.750000
vt 0.625000 1.000000
vt 0.500000 1.000000
vt 0.875000 0.500000
vt 0.875000 0.750000
s 0
f 37/49/25 33/50/25 34/51/25 38/52/25
f 38/52/26 34/51/26 36/53/26 39/54/26
f 39/54/27 36/53/27 35/55/27 40/56/27
f 40/56/28 35/55/28 33/57/28 37/58/28
f 36/53/29 34/59/29 33/60/29 35/55/29
f 40/56/30 37/49/30 38/52/30 39/54/30
o flag_1.001
v 1.450000 3.000000 0.050000
v 1.450000 3.000000 -0.050000
v 1.550000 3.000000 0.050000
v 1.550000 3.000000 -0.050000
v 1.450000 2.000000 0.050000
v 1.450000 2.000000 -0.050000
v 1.550000 2.000000 -0.050000
v 1.550000 2.000000 0.050000
vn -1.0000 -0.0000 -0.0000
vn -0.0000 -0.0000 -1.0000
vn 1.0000 -0.0000 -0.0000
vn -0.0000 -0.0000 1.0000
vn -0.0000 1.0000 -0.0000
vn -0.0000 -1.0000 -0.0000
vt 0.500000 0.000000
vt 0.625000 0.000000
vt 0.625000 0.250000
vt 0.500000 0.250000
vt 0.625000 0.500000
vt 0.500000 0.500000
vt 0.625000 0.750000
vt 0.500000 0.750000
vt 0.625000 1.000000
vt 0.500000 1.000000
vt 0.875000 0.500000
vt 0.875000 0.750000
s 0
f 45/61/31 41/62/31 42/63/31 46/64/31
f 46/64/32 42/63/32 44/65/32 47/66/32
f 47/66/33 44/65/33 43/67/33 48/68/33
f 48/68/34 43/67/34 41/69/34 45/70/34
f 44/65/35 42/71/35 41/72/35 43/67/35
f 48/68/36 45/61/36 46/64/36 47/66/36
o flag_2.001
v -1.550000 3.000000 0.050000
v -1.550000 3.000000 -0.050000
v -1.450000 3.000000 0.050000
v -1.450000 3.000000 -0.050000
v -1.550000 2.000000 0.050000
v -1.550000 2.000000 -0.050000
v -1.450000 2.000000 -0.050000
v -1.450000 2.000000 0.050000
vn -1.0000 -0.0000 -0.0000
vn -0.0000 -0.0000 -1.0000
vn 1.0000 -0.0000 -0.0000
vn -0.0000 -0.0000 1.0000
vn -0.0000 1.0000 -0.0000
vn -0.0000 -1.0000 -0.0000
vt 0.500000 0.000000
vt 0.625000 0.000000
vt 0.625000 0.250000
vt 0.500000 0.250000
vt 0.625000 0.500000
vt 0.500000 0.500000
vt 0.625000 0.750000
vt 0.500000 0.750000
vt 0.625000 1.000000
vt 0.500000 1.000000
vt 0.875000 0.500000
vt 0.875000 0.750000
s 0
f 53/73/37 49/74/37 50/75/37 54/76/37
f 54/76/38 50/75/38 52/77/38 55/78/38
f 55/78/39 52/77/39 51/79/39 56/80/39
f 56/80/40 51/79/40 49/81/40 53/82/40
f 52/77/41 50/83/41 49/84/41 51/79/41
f 56/80/42 53/73/42 54/76/42 55/78/42
